<?xml version="1.0" encoding="utf-8"?>
<!-- Generator: Adobe Illustrator 24.1.2, SVG Export Plug-In . SVG Version: 6.00 Build 0)  -->
<svg version="1.1" id="Layer_1" xmlns="http://www.w3.org/2000/svg" xmlns:xlink="http://www.w3.org/1999/xlink" x="0px" y="0px"
	 viewBox="0 0 668.8 290.1" style="enable-background:new 0 0 668.8 290.1;" xml:space="preserve">
<style type="text/css">
	.st0{opacity:6.000000e-02;fill:#99CC33;enable-background:new    ;}
</style>
<path class="st0" d="M560.6,210.9l-13.5-0.2l-6.8-0.1c-2.2,0.1-4.4-0.3-7.2,0.2c-5.4,1.1-9.8,4.9-11.7,10l-4,13l-10.9,36.4
	l-15.7-124.8C485,98.5,478.9,51.6,472.6,4.7c-0.4-3-3.2-5.2-6.2-4.8c-2.5,0.3-4.5,2.4-4.8,4.9l-26.8,236.8l-10.3-25.7l0,0
	c-0.9-2.3-3.1-3.8-5.6-3.8l-60.9-0.3L312,167v-0.1c-0.2-0.2-0.4-0.4-0.6-0.5c-2.5-1.8-6.1-1.2-7.9,1.3l0,0l0,0l-19.4,26.9l-9.7,13.5
	l-4.8,6.7l-2.4,3.4c-0.5,0.7-1.1,1.4-1.8,1.9c-1.3,1-2.8,1.6-4.5,1.7h-8.1l-16.6-0.1l-33.2-0.1l-132.6,0.1c-21.7,0-43.3,0-65,0.1
	c-0.2,0.2-0.3,0.5-0.5,0.7c-1.1,1.4-3.3,3.8-4.9,5.7c23.5,0.5,47,0.9,70.4,1.3l132.6,2.4l33.2,0.5l16.6,0.2l8.5,0.1
	c3.9-0.1,7.7-1.5,10.8-3.9c1.5-1.2,2.8-2.6,3.9-4.1l2.4-3.4l4.9-6.7l9.8-13.4l15.6-21.5l42.9,42.2c1.1,1,2.5,1.6,4,1.7h0.1l59.1,0.7
	l17.6,45c1.2,3.2,4.9,4.8,8.1,3.5c2.2-0.8,3.7-2.8,3.9-5.2l23.4-216.9c4.5,32,9,64,13.7,96l20.3,140.4v0.1c0.3,1.9,2,3.1,3.9,2.9
	c1.3-0.2,2.4-1.2,2.8-2.5l14.3-52.1l3.5-13c1.2-3.5,4.1-6.2,7.7-7c1.7-0.4,4-0.3,6.3-0.4l6.7-0.1l13.6-0.2l108.2-1.9L560.6,210.9z"
	/>
</svg>
