<?xml version="1.0" encoding="utf-8"?>
<!-- Generator: Adobe Illustrator 24.1.2, SVG Export Plug-In . SVG Version: 6.00 Build 0)  -->
<svg version="1.2" baseProfile="tiny" id="Layer_1" xmlns="http://www.w3.org/2000/svg" xmlns:xlink="http://www.w3.org/1999/xlink"
	 x="0px" y="0px" viewBox="0 0 400 1454.76" overflow="visible" xml:space="preserve">
<g>
	<path fill="#F7F7F7" d="M0,0v1445.38c0,0,127.5-21.38,212.71-7.71c88.87,14.26,187.29,17.08,187.29,17.08V51.22l-273.77,27.6
		C66.1,84.88,12.44,49.56,0,0z"/>
	<path fill="#F3F3F3" d="M0,0v876.21c20.74-2.5,63.95-6.89,102.7-9.07c26.52-1.49,51.81-11.93,71.45-29.81
		c4.42-4.02,8.35-8.24,11.69-12.65c42.5-56.25,22.08-74.58,42.5-150.63c11.71-43.6-15.76-552.8-41.33-601.36l-60.77,6.13
		C66.1,84.88,12.44,49.56,0,0z"/>
</g>
</svg>
