<svg id="Layer_1" data-name="Layer 1" xmlns="http://www.w3.org/2000/svg" viewBox="0 0 400 3869.76"><path d="M0,0V3860.38s127.5-21.38,212.71-7.71c88.87,14.27,187.29,17.09,187.29,17.09V51.22L126.23,78.82C66.1,84.88,12.44,49.56,0,0Z" style="fill:#f7f7f7"/><path d="M0,0V876.21c20.74-2.5,64-6.89,102.7-9.07a115.81,115.81,0,0,0,71.45-29.81,93.56,93.56,0,0,0,11.68-12.65c42.5-56.25,22.09-74.59,42.5-150.63C240,630.45,212.57,121.25,187,72.7l-60.77,6.12C66.1,84.88,12.44,49.56,0,0Z" style="fill:#f3f3f3"/></svg>