<svg id="Layer_1" data-name="Layer 1" xmlns="http://www.w3.org/2000/svg" viewBox="0 0 770 3852.76"><path d="M0,0V3843.38s245.44-21.38,409.46-7.71C580.54,3849.94,770,3852.76,770,3852.76V51.22L243,78.82C127.24,84.88,24,49.56,0,0Z" style="fill:#f7f7f7"/><path d="M0,0V3274.21c39.92-2.5,123.1-6.89,197.69-9.07,51-1.5,99.74-11.93,137.54-29.81a162.69,162.69,0,0,0,22.5-12.65c81.81-56.25,42.51-74.59,81.81-150.63C462.08,3028.45,409.19,121.25,360,72.7L243,78.82C127.24,84.88,24,49.56,0,0Z" style="fill:#f3f3f3"/></svg>