<?xml version="1.0" encoding="utf-8"?>
<!-- Generator: Adobe Illustrator 24.1.2, SVG Export Plug-In . SVG Version: 6.00 Build 0)  -->
<svg version="1.2" baseProfile="tiny" id="Layer_1" xmlns="http://www.w3.org/2000/svg" xmlns:xlink="http://www.w3.org/1999/xlink"
	 x="0px" y="0px" viewBox="0 0 1920 2403.64" overflow="visible" xml:space="preserve">
<path fill="#F7F7F7" d="M0,0v2358.64c0,0,612-102.64,1021-37c426.57,68.46,899,82,899,82V245.86L605.92,378.35
	C317.28,407.45,59.72,237.88,0,0z"/>
<path fill="#F3F3F3" d="M0,0v2079.4c99.55-12,306.96-33.08,492.94-43.55c127.28-7.16,248.7-57.26,342.96-143.07
	c21.21-19.31,40.09-39.55,56.1-60.73c204-270,106-358,204-723c56.19-209.28-75.67-527.06-198.41-760.1l-291.67,29.41
	C317.28,407.45,59.72,237.88,0,0z"/>
</svg>
