<svg id="Layer_1" data-name="Layer 1" xmlns="http://www.w3.org/2000/svg" viewBox="0 0 44.81 42.71"><path d="M34,32.25a5.23,5.23,0,1,0,5.23,5.23h0A5.29,5.29,0,0,0,34,32.25Z" style="fill:#fff"/><path d="M43.17,7.3c-.1,0-.25-.06-.41-.06H11.07l-.5-3.37A4.52,4.52,0,0,0,6.09,0H2A2,2,0,0,0,2,4H6.09a.54.54,0,0,1,.5.46L9.71,25.71a5.51,5.51,0,0,0,5.43,4.68H36.07A5.6,5.6,0,0,0,41.51,26L44.78,9.61A2,2,0,0,0,43.17,7.3Z" style="fill:#fff"/><path d="M16,32.25a5.26,5.26,0,0,0-5,5.43,5.15,5.15,0,0,0,5.13,5h.1A5.21,5.21,0,0,0,16,32.25Z" style="fill:#fff"/></svg>