<svg id="Capa_1" data-name="Capa 1" xmlns="http://www.w3.org/2000/svg" viewBox="0 0 380.84 376.1"><path d="M227.33,294.36a63.45,63.45,0,0,1-74.68-.08L0,182.93V331.36A44.74,44.74,0,0,0,44.74,376.1H336.1a44.74,44.74,0,0,0,44.74-44.74V182.93Z"/><path d="M8.46,158.64l62.32,46.19V69.25H310.06V204.83l62.32-46.19A17,17,0,0,0,379.23,145v-6.61a16.94,16.94,0,0,0-6.49-13.34l-28.61-22.44-.68-33.51a35,35,0,0,0-35-34.29h-61A21,21,0,0,1,233,29.08L211.1,8.26a30,30,0,0,0-41.36,0l-21.9,20.82a21,21,0,0,1-14.41,5.75H72.38a35,35,0,0,0-35,34.29l-.68,33.51L8.1,125.07a16.94,16.94,0,0,0-6.49,13.34V145A17,17,0,0,0,8.46,158.64Z"/><rect x="118.38" y="123.28" width="143.16" height="29.6" rx="0.86"/><rect x="118.38" y="197.61" width="143.16" height="29.6" rx="0.86"/></svg>