<svg id="Capa_1" data-name="Capa 1" xmlns="http://www.w3.org/2000/svg" viewBox="0 0 440.09 393.16"><path d="M424.61,123.65,318,170.48V393.16l115.47-50.27a11,11,0,0,0,6.64-10.12v-199A11,11,0,0,0,424.61,123.65Z"/><path d="M83.21,133.93,6.6,167.58A11,11,0,0,0,0,177.69V376.31a11,11,0,0,0,15.45,10.12l100-43.54a11,11,0,0,0,6.63-10.12V159.34A27.75,27.75,0,0,0,83.21,133.93Z"/><path d="M195.35,269.08l-49.77-63.16V340l147.49,53.16V210.71l-49,59A31.35,31.35,0,0,1,195.35,269.08Z"/><path d="M219.33,0c-52.9,0-96.79,42.89-95.78,95.78,1.44,74.94,95.78,158.5,95.78,158.5S318,167.37,315.1,95.78C313,42.92,272.22,0,219.33,0Zm0,128.82a33,33,0,1,1,33-33A33.05,33.05,0,0,1,219.33,128.82Z"/></svg>