<svg id="Capa_1" data-name="Capa 1" xmlns="http://www.w3.org/2000/svg" viewBox="0 0 387 387"><path d="M193.55,0h-.1C86.76,0,0,86.78,0,193.5A192,192,0,0,0,36.84,306.91L12.72,378.8,87.1,355a191.81,191.81,0,0,0,106.45,32C300.24,387,387,300.19,387,193.5S300.24,0,193.55,0ZM306.14,273.24c-4.67,13.19-23.2,24.12-38,27.31-10.11,2.15-23.31,3.87-67.77-14.56-56.86-23.56-93.48-81.34-96.34-85.09s-23-30.6-23-58.36,14.1-41.29,19.78-47.1c4.67-4.76,12.38-6.94,19.79-6.94,2.39,0,4.54.12,6.48.22,5.68.24,8.54.58,12.29,9.55,4.66,11.25,16,39,17.39,41.87s2.75,6.72.82,10.47-3.41,5.59-6.27,8.88-5.56,5.81-8.41,9.34c-2.62,3.07-5.57,6.36-2.28,12s14.66,24.12,31.4,39c21.6,19.22,39.11,25.37,45.37,28,4.67,1.94,10.23,1.48,13.64-2.15,4.33-4.67,9.68-12.41,15.12-20,3.87-5.47,8.76-6.14,13.89-4.21S293,237,298.64,239.79s9.43,4.21,10.81,6.61S310.81,260,306.14,273.24Z"/></svg>